<svg width="32" height="32" viewBox="0 0 32 32" fill="none" xmlns="http://www.w3.org/2000/svg">
  <!-- QR Code pattern -->
  <rect width="32" height="32" fill="white"/>
  
  <!-- Corner squares (top-left) -->
  <rect x="2" y="2" width="7" height="7" fill="#1e293b"/>
  <rect x="3" y="3" width="5" height="5" fill="white"/>
  <rect x="4" y="4" width="3" height="3" fill="#1e293b"/>
  
  <!-- Corner squares (top-right) -->
  <rect x="23" y="2" width="7" height="7" fill="#1e293b"/>
  <rect x="24" y="3" width="5" height="5" fill="white"/>
  <rect x="25" y="4" width="3" height="3" fill="#1e293b"/>
  
  <!-- Corner squares (bottom-left) -->
  <rect x="2" y="23" width="7" height="7" fill="#1e293b"/>
  <rect x="3" y="24" width="5" height="5" fill="white"/>
  <rect x="4" y="25" width="3" height="3" fill="#1e293b"/>
  
  <!-- Timing patterns -->
  <rect x="10" y="6" width="1" height="1" fill="#1e293b"/>
  <rect x="12" y="6" width="1" height="1" fill="#1e293b"/>
  <rect x="14" y="6" width="1" height="1" fill="#1e293b"/>
  <rect x="16" y="6" width="1" height="1" fill="#1e293b"/>
  <rect x="18" y="6" width="1" height="1" fill="#1e293b"/>
  <rect x="20" y="6" width="1" height="1" fill="#1e293b"/>
  
  <rect x="6" y="10" width="1" height="1" fill="#1e293b"/>
  <rect x="6" y="12" width="1" height="1" fill="#1e293b"/>
  <rect x="6" y="14" width="1" height="1" fill="#1e293b"/>
  <rect x="6" y="16" width="1" height="1" fill="#1e293b"/>
  <rect x="6" y="18" width="1" height="1" fill="#1e293b"/>
  <rect x="6" y="20" width="1" height="1" fill="#1e293b"/>
  
  <!-- Data pattern -->
  <rect x="11" y="11" width="1" height="1" fill="#1e293b"/>
  <rect x="13" y="11" width="1" height="1" fill="#1e293b"/>
  <rect x="15" y="11" width="1" height="1" fill="#1e293b"/>
  <rect x="17" y="11" width="1" height="1" fill="#1e293b"/>
  <rect x="19" y="11" width="1" height="1" fill="#1e293b"/>
  
  <rect x="11" y="13" width="1" height="1" fill="#1e293b"/>
  <rect x="15" y="13" width="1" height="1" fill="#1e293b"/>
  <rect x="19" y="13" width="1" height="1" fill="#1e293b"/>
  
  <rect x="11" y="15" width="1" height="1" fill="#1e293b"/>
  <rect x="13" y="15" width="1" height="1" fill="#1e293b"/>
  <rect x="17" y="15" width="1" height="1" fill="#1e293b"/>
  <rect x="19" y="15" width="1" height="1" fill="#1e293b"/>
  
  <rect x="13" y="17" width="1" height="1" fill="#1e293b"/>
  <rect x="15" y="17" width="1" height="1" fill="#1e293b"/>
  <rect x="17" y="17" width="1" height="1" fill="#1e293b"/>
  
  <rect x="11" y="19" width="1" height="1" fill="#1e293b"/>
  <rect x="15" y="19" width="1" height="1" fill="#1e293b"/>
  <rect x="17" y="19" width="1" height="1" fill="#1e293b"/>
  <rect x="19" y="19" width="1" height="1" fill="#1e293b"/>
  
  <!-- Additional data dots -->
  <rect x="23" y="11" width="1" height="1" fill="#1e293b"/>
  <rect x="25" y="11" width="1" height="1" fill="#1e293b"/>
  <rect x="27" y="11" width="1" height="1" fill="#1e293b"/>
  <rect x="29" y="11" width="1" height="1" fill="#1e293b"/>
  
  <rect x="23" y="13" width="1" height="1" fill="#1e293b"/>
  <rect x="27" y="13" width="1" height="1" fill="#1e293b"/>
  <rect x="29" y="13" width="1" height="1" fill="#1e293b"/>
  
  <rect x="25" y="15" width="1" height="1" fill="#1e293b"/>
  <rect x="27" y="15" width="1" height="1" fill="#1e293b"/>
  
  <rect x="23" y="17" width="1" height="1" fill="#1e293b"/>
  <rect x="25" y="17" width="1" height="1" fill="#1e293b"/>
  <rect x="29" y="17" width="1" height="1" fill="#1e293b"/>
  
  <rect x="23" y="19" width="1" height="1" fill="#1e293b"/>
  <rect x="27" y="19" width="1" height="1" fill="#1e293b"/>
  <rect x="29" y="19" width="1" height="1" fill="#1e293b"/>
  
  <!-- Bottom section data -->
  <rect x="11" y="23" width="1" height="1" fill="#1e293b"/>
  <rect x="13" y="23" width="1" height="1" fill="#1e293b"/>
  <rect x="15" y="23" width="1" height="1" fill="#1e293b"/>
  <rect x="17" y="23" width="1" height="1" fill="#1e293b"/>
  <rect x="19" y="23" width="1" height="1" fill="#1e293b"/>
  
  <rect x="13" y="25" width="1" height="1" fill="#1e293b"/>
  <rect x="15" y="25" width="1" height="1" fill="#1e293b"/>
  <rect x="19" y="25" width="1" height="1" fill="#1e293b"/>
  
  <rect x="11" y="27" width="1" height="1" fill="#1e293b"/>
  <rect x="15" y="27" width="1" height="1" fill="#1e293b"/>
  <rect x="17" y="27" width="1" height="1" fill="#1e293b"/>
  
  <rect x="11" y="29" width="1" height="1" fill="#1e293b"/>
  <rect x="13" y="29" width="1" height="1" fill="#1e293b"/>
  <rect x="17" y="29" width="1" height="1" fill="#1e293b"/>
  <rect x="19" y="29" width="1" height="1" fill="#1e293b"/>
</svg>